<svg id="visual" viewBox="0 0 900 600" width="900" height="600" xmlns="http://www.w3.org/2000/svg" xmlns:xlink="http://www.w3.org/1999/xlink" version="1.1"><rect x="0" y="0" width="900" height="600" fill="#000000"></rect><defs><linearGradient id="grad1_0" x1="33.3%" y1="0%" x2="100%" y2="100%"><stop offset="20%" stop-color="#000000" stop-opacity="1"></stop><stop offset="80%" stop-color="#000000" stop-opacity="1"></stop></linearGradient></defs><defs><linearGradient id="grad2_0" x1="0%" y1="0%" x2="66.7%" y2="100%"><stop offset="20%" stop-color="#000000" stop-opacity="1"></stop><stop offset="80%" stop-color="#000000" stop-opacity="1"></stop></linearGradient></defs><g transform="translate(900, 0)"><path d="M0 378.6C-68.1 369.8 -136.3 361 -189.3 327.9C-242.3 294.7 -280.1 237.2 -309.2 178.5C-338.2 119.8 -358.4 59.9 -378.6 0L0 0Z" fill="#AF0404"></path></g><g transform="translate(0, 600)"><path d="M0 -378.6C63.1 -363.9 126.2 -349.3 184.5 -319.6C242.8 -289.8 296.3 -245.1 327.9 -189.3C359.4 -133.5 369 -66.8 378.6 0L0 0Z" fill="#AF0404"></path></g></svg>