<svg id="visual" viewBox="0 0 900 600" width="900" height="600" xmlns="http://www.w3.org/2000/svg" xmlns:xlink="http://www.w3.org/1999/xlink" version="1.1"><rect x="0" y="0" width="900" height="600" fill="#000000"></rect><defs><linearGradient id="grad1_0" x1="33.3%" y1="0%" x2="100%" y2="100%"><stop offset="20%" stop-color="#af0404" stop-opacity="1"></stop><stop offset="80%" stop-color="#af0404" stop-opacity="1"></stop></linearGradient></defs><defs><linearGradient id="grad1_1" x1="33.3%" y1="0%" x2="100%" y2="100%"><stop offset="20%" stop-color="#af0404" stop-opacity="1"></stop><stop offset="80%" stop-color="#9f0000" stop-opacity="1"></stop></linearGradient></defs><defs><linearGradient id="grad1_2" x1="33.3%" y1="0%" x2="100%" y2="100%"><stop offset="20%" stop-color="#8f0000" stop-opacity="1"></stop><stop offset="80%" stop-color="#9f0000" stop-opacity="1"></stop></linearGradient></defs><defs><linearGradient id="grad1_3" x1="33.3%" y1="0%" x2="100%" y2="100%"><stop offset="20%" stop-color="#8f0000" stop-opacity="1"></stop><stop offset="80%" stop-color="#7f0000" stop-opacity="1"></stop></linearGradient></defs><defs><linearGradient id="grad1_4" x1="33.3%" y1="0%" x2="100%" y2="100%"><stop offset="20%" stop-color="#700000" stop-opacity="1"></stop><stop offset="80%" stop-color="#7f0000" stop-opacity="1"></stop></linearGradient></defs><defs><linearGradient id="grad1_5" x1="33.3%" y1="0%" x2="100%" y2="100%"><stop offset="20%" stop-color="#700000" stop-opacity="1"></stop><stop offset="80%" stop-color="#620000" stop-opacity="1"></stop></linearGradient></defs><defs><linearGradient id="grad1_6" x1="33.3%" y1="0%" x2="100%" y2="100%"><stop offset="20%" stop-color="#550000" stop-opacity="1"></stop><stop offset="80%" stop-color="#620000" stop-opacity="1"></stop></linearGradient></defs><defs><linearGradient id="grad1_7" x1="33.3%" y1="0%" x2="100%" y2="100%"><stop offset="20%" stop-color="#550000" stop-opacity="1"></stop><stop offset="80%" stop-color="#000000" stop-opacity="1"></stop></linearGradient></defs><defs><linearGradient id="grad2_0" x1="0%" y1="0%" x2="66.7%" y2="100%"><stop offset="20%" stop-color="#af0404" stop-opacity="1"></stop><stop offset="80%" stop-color="#af0404" stop-opacity="1"></stop></linearGradient></defs><defs><linearGradient id="grad2_1" x1="0%" y1="0%" x2="66.7%" y2="100%"><stop offset="20%" stop-color="#9f0000" stop-opacity="1"></stop><stop offset="80%" stop-color="#af0404" stop-opacity="1"></stop></linearGradient></defs><defs><linearGradient id="grad2_2" x1="0%" y1="0%" x2="66.7%" y2="100%"><stop offset="20%" stop-color="#9f0000" stop-opacity="1"></stop><stop offset="80%" stop-color="#8f0000" stop-opacity="1"></stop></linearGradient></defs><defs><linearGradient id="grad2_3" x1="0%" y1="0%" x2="66.7%" y2="100%"><stop offset="20%" stop-color="#7f0000" stop-opacity="1"></stop><stop offset="80%" stop-color="#8f0000" stop-opacity="1"></stop></linearGradient></defs><defs><linearGradient id="grad2_4" x1="0%" y1="0%" x2="66.7%" y2="100%"><stop offset="20%" stop-color="#7f0000" stop-opacity="1"></stop><stop offset="80%" stop-color="#700000" stop-opacity="1"></stop></linearGradient></defs><defs><linearGradient id="grad2_5" x1="0%" y1="0%" x2="66.7%" y2="100%"><stop offset="20%" stop-color="#620000" stop-opacity="1"></stop><stop offset="80%" stop-color="#700000" stop-opacity="1"></stop></linearGradient></defs><defs><linearGradient id="grad2_6" x1="0%" y1="0%" x2="66.7%" y2="100%"><stop offset="20%" stop-color="#620000" stop-opacity="1"></stop><stop offset="80%" stop-color="#550000" stop-opacity="1"></stop></linearGradient></defs><defs><linearGradient id="grad2_7" x1="0%" y1="0%" x2="66.7%" y2="100%"><stop offset="20%" stop-color="#000000" stop-opacity="1"></stop><stop offset="80%" stop-color="#550000" stop-opacity="1"></stop></linearGradient></defs><g transform="translate(900, 0)"><path d="M0 378.6C-75.3 373.9 -150.6 369.3 -189.3 327.9C-228 286.4 -230 208.3 -255.5 147.5C-280.9 86.7 -329.8 43.4 -378.6 0L0 0Z" fill="#4f0000"></path><path d="M0 331.3C-65.9 327.2 -131.8 323.1 -165.6 286.9C-199.5 250.6 -201.3 182.2 -223.5 129.1C-245.8 75.9 -288.5 37.9 -331.3 0L0 0Z" fill="#5b0000"></path><path d="M0 283.9C-56.5 280.4 -113 277 -142 245.9C-171 214.8 -172.5 156.2 -191.6 110.6C-210.7 65 -247.3 32.5 -283.9 0L0 0Z" fill="#690000"></path><path d="M0 236.6C-47.1 233.7 -94.1 230.8 -118.3 204.9C-142.5 179 -143.8 130.2 -159.7 92.2C-175.6 54.2 -206.1 27.1 -236.6 0L0 0Z" fill="#780000"></path><path d="M0 189.3C-37.7 187 -75.3 184.6 -94.6 163.9C-114 143.2 -115 104.1 -127.7 73.8C-140.5 43.4 -164.9 21.7 -189.3 0L0 0Z" fill="#870000"></path><path d="M0 142C-28.2 140.2 -56.5 138.5 -71 122.9C-85.5 107.4 -86.3 78.1 -95.8 55.3C-105.3 32.5 -123.7 16.3 -142 0L0 0Z" fill="#970000"></path><path d="M0 94.6C-18.8 93.5 -37.7 92.3 -47.3 82C-57 71.6 -57.5 52.1 -63.9 36.9C-70.2 21.7 -82.4 10.8 -94.6 0L0 0Z" fill="#a70000"></path><path d="M0 47.3C-9.4 46.7 -18.8 46.2 -23.7 41C-28.5 35.8 -28.8 26 -31.9 18.4C-35.1 10.8 -41.2 5.4 -47.3 0L0 0Z" fill="#af0404"></path></g><g transform="translate(0, 600)"><path d="M0 -378.6C52.2 -345 104.3 -311.4 164 -284.1C223.7 -256.7 290.8 -235.6 327.9 -189.3C364.9 -143 371.7 -71.5 378.6 0L0 0Z" fill="#4f0000"></path><path d="M0 -331.3C45.6 -301.9 91.3 -272.5 143.5 -248.5C195.7 -224.6 254.5 -206.1 286.9 -165.6C319.3 -125.1 325.3 -62.6 331.3 0L0 0Z" fill="#5b0000"></path><path d="M0 -283.9C39.1 -258.7 78.2 -233.6 123 -213C167.8 -192.5 218.1 -176.7 245.9 -142C273.7 -107.2 278.8 -53.6 283.9 0L0 0Z" fill="#690000"></path><path d="M0 -236.6C32.6 -215.6 65.2 -194.6 102.5 -177.5C139.8 -160.4 181.8 -147.2 204.9 -118.3C228 -89.4 232.3 -44.7 236.6 0L0 0Z" fill="#780000"></path><path d="M0 -189.3C26.1 -172.5 52.2 -155.7 82 -142C111.8 -128.4 145.4 -117.8 163.9 -94.6C182.4 -71.5 185.9 -35.7 189.3 0L0 0Z" fill="#870000"></path><path d="M0 -142C19.6 -129.4 39.1 -116.8 61.5 -106.5C83.9 -96.3 109.1 -88.3 122.9 -71C136.8 -53.6 139.4 -26.8 142 0L0 0Z" fill="#970000"></path><path d="M0 -94.6C13 -86.2 26.1 -77.9 41 -71C55.9 -64.2 72.7 -58.9 82 -47.3C91.2 -35.7 92.9 -17.9 94.6 0L0 0Z" fill="#a70000"></path><path d="M0 -47.3C6.5 -43.1 13 -38.9 20.5 -35.5C28 -32.1 36.4 -29.4 41 -23.7C45.6 -17.9 46.5 -8.9 47.3 0L0 0Z" fill="#af0404"></path></g></svg>